<mxfile host="Electron" agent="Mozilla/5.0 (Windows NT 10.0; Win64; x64) AppleWebKit/537.36 (KHTML, like Gecko) draw.io/24.7.8 Chrome/128.0.6613.36 Electron/32.0.1 Safari/537.36" version="24.7.8">
  <diagram id="prtHgNgQTEPvFCAcTncT" name="Page-1">
    <mxGraphModel dx="1434" dy="2005" grid="1" gridSize="10" guides="1" tooltips="1" connect="1" arrows="1" fold="1" page="1" pageScale="1" pageWidth="827" pageHeight="1169" math="0" shadow="0">
      <root>
        <mxCell id="0" />
        <mxCell id="1" parent="0" />
        <mxCell id="z8Y7xAZGWk_IaaEwNHAA-1" value="Пользователь" style="swimlane;horizontal=0;whiteSpace=wrap;html=1;fillColor=#f5f5f5;fontColor=#333333;strokeColor=#666666;" parent="1" vertex="1">
          <mxGeometry x="90" y="-170" width="1790" height="440" as="geometry" />
        </mxCell>
        <mxCell id="tt7NXVBQ63s8AivNIr0f-18" style="edgeStyle=orthogonalEdgeStyle;rounded=0;orthogonalLoop=1;jettySize=auto;html=1;" parent="z8Y7xAZGWk_IaaEwNHAA-1" source="z8Y7xAZGWk_IaaEwNHAA-7" target="tt7NXVBQ63s8AivNIr0f-3" edge="1">
          <mxGeometry relative="1" as="geometry" />
        </mxCell>
        <mxCell id="z8Y7xAZGWk_IaaEwNHAA-7" value="&lt;font style=&quot;font-size: 10px;&quot;&gt;Вход в систему&lt;/font&gt;" style="ellipse;whiteSpace=wrap;html=1;aspect=fixed;fillColor=#f5f5f5;fontColor=#333333;strokeColor=#666666;" parent="z8Y7xAZGWk_IaaEwNHAA-1" vertex="1">
          <mxGeometry x="50" y="290" width="50" height="50" as="geometry" />
        </mxCell>
        <mxCell id="tt7NXVBQ63s8AivNIr0f-22" style="edgeStyle=orthogonalEdgeStyle;rounded=0;orthogonalLoop=1;jettySize=auto;html=1;" parent="z8Y7xAZGWk_IaaEwNHAA-1" source="tt7NXVBQ63s8AivNIr0f-3" target="tt7NXVBQ63s8AivNIr0f-21" edge="1">
          <mxGeometry relative="1" as="geometry" />
        </mxCell>
        <mxCell id="tt7NXVBQ63s8AivNIr0f-3" value="Нужно ли добавить&lt;div&gt;нового пользователя?&lt;/div&gt;" style="points=[[0.25,0.25,0],[0.5,0,0],[0.75,0.25,0],[1,0.5,0],[0.75,0.75,0],[0.5,1,0],[0.25,0.75,0],[0,0.5,0]];shape=mxgraph.bpmn.gateway2;html=1;verticalLabelPosition=bottom;labelBackgroundColor=#ffffff;verticalAlign=top;align=center;perimeter=rhombusPerimeter;outlineConnect=0;outline=none;symbol=none;gwType=exclusive;" parent="z8Y7xAZGWk_IaaEwNHAA-1" vertex="1">
          <mxGeometry x="170" y="290" width="50" height="50" as="geometry" />
        </mxCell>
        <mxCell id="tt7NXVBQ63s8AivNIr0f-20" style="edgeStyle=orthogonalEdgeStyle;rounded=0;orthogonalLoop=1;jettySize=auto;html=1;" parent="z8Y7xAZGWk_IaaEwNHAA-1" source="tt7NXVBQ63s8AivNIr0f-5" edge="1">
          <mxGeometry relative="1" as="geometry">
            <mxPoint x="130" y="315" as="targetPoint" />
            <Array as="points">
              <mxPoint x="300" y="120" />
              <mxPoint x="130" y="120" />
            </Array>
          </mxGeometry>
        </mxCell>
        <mxCell id="tt7NXVBQ63s8AivNIr0f-5" value="Добавить пользователя" style="points=[[0.25,0,0],[0.5,0,0],[0.75,0,0],[1,0.25,0],[1,0.5,0],[1,0.75,0],[0.75,1,0],[0.5,1,0],[0.25,1,0],[0,0.75,0],[0,0.5,0],[0,0.25,0]];shape=mxgraph.bpmn.task;whiteSpace=wrap;rectStyle=rounded;size=10;html=1;container=1;expand=0;collapsible=0;taskMarker=user;" parent="z8Y7xAZGWk_IaaEwNHAA-1" vertex="1">
          <mxGeometry x="240" y="150" width="120" height="80" as="geometry" />
        </mxCell>
        <mxCell id="tt7NXVBQ63s8AivNIr0f-19" value="" style="endArrow=classic;html=1;rounded=0;exitX=0.5;exitY=0;exitDx=0;exitDy=0;exitPerimeter=0;entryX=0;entryY=0.5;entryDx=0;entryDy=0;entryPerimeter=0;" parent="z8Y7xAZGWk_IaaEwNHAA-1" source="tt7NXVBQ63s8AivNIr0f-3" target="tt7NXVBQ63s8AivNIr0f-5" edge="1">
          <mxGeometry width="50" height="50" relative="1" as="geometry">
            <mxPoint x="260" y="310" as="sourcePoint" />
            <mxPoint x="310" y="260" as="targetPoint" />
            <Array as="points">
              <mxPoint x="195" y="190" />
            </Array>
          </mxGeometry>
        </mxCell>
        <mxCell id="tt7NXVBQ63s8AivNIr0f-21" value="Нужно ли изменить&lt;div&gt;стоимость услуг?&lt;/div&gt;" style="points=[[0.25,0.25,0],[0.5,0,0],[0.75,0.25,0],[1,0.5,0],[0.75,0.75,0],[0.5,1,0],[0.25,0.75,0],[0,0.5,0]];shape=mxgraph.bpmn.gateway2;html=1;verticalLabelPosition=bottom;labelBackgroundColor=#ffffff;verticalAlign=top;align=center;perimeter=rhombusPerimeter;outlineConnect=0;outline=none;symbol=none;gwType=exclusive;" parent="z8Y7xAZGWk_IaaEwNHAA-1" vertex="1">
          <mxGeometry x="410" y="290" width="50" height="50" as="geometry" />
        </mxCell>
        <mxCell id="tt7NXVBQ63s8AivNIr0f-23" value="Редактировать стоимость услуг связи" style="points=[[0.25,0,0],[0.5,0,0],[0.75,0,0],[1,0.25,0],[1,0.5,0],[1,0.75,0],[0.75,1,0],[0.5,1,0],[0.25,1,0],[0,0.75,0],[0,0.5,0],[0,0.25,0]];shape=mxgraph.bpmn.task;whiteSpace=wrap;rectStyle=rounded;size=10;html=1;container=1;expand=0;collapsible=0;taskMarker=user;" parent="z8Y7xAZGWk_IaaEwNHAA-1" vertex="1">
          <mxGeometry x="490" y="150" width="120" height="80" as="geometry" />
        </mxCell>
        <mxCell id="tt7NXVBQ63s8AivNIr0f-24" style="edgeStyle=orthogonalEdgeStyle;rounded=0;orthogonalLoop=1;jettySize=auto;html=1;entryX=0;entryY=0.5;entryDx=0;entryDy=0;entryPerimeter=0;" parent="z8Y7xAZGWk_IaaEwNHAA-1" source="tt7NXVBQ63s8AivNIr0f-21" target="tt7NXVBQ63s8AivNIr0f-23" edge="1">
          <mxGeometry relative="1" as="geometry">
            <Array as="points">
              <mxPoint x="435" y="190" />
            </Array>
          </mxGeometry>
        </mxCell>
        <mxCell id="tt7NXVBQ63s8AivNIr0f-26" value="" style="endArrow=classic;html=1;rounded=0;exitX=0.5;exitY=0;exitDx=0;exitDy=0;exitPerimeter=0;" parent="z8Y7xAZGWk_IaaEwNHAA-1" source="tt7NXVBQ63s8AivNIr0f-23" edge="1">
          <mxGeometry width="50" height="50" relative="1" as="geometry">
            <mxPoint x="590" y="110" as="sourcePoint" />
            <mxPoint x="390" y="315" as="targetPoint" />
            <Array as="points">
              <mxPoint x="550" y="120" />
              <mxPoint x="390" y="120" />
            </Array>
          </mxGeometry>
        </mxCell>
        <mxCell id="tt7NXVBQ63s8AivNIr0f-28" value="Нет" style="text;html=1;align=center;verticalAlign=middle;resizable=0;points=[];autosize=1;strokeColor=none;fillColor=none;" parent="z8Y7xAZGWk_IaaEwNHAA-1" vertex="1">
          <mxGeometry x="220" y="290" width="40" height="30" as="geometry" />
        </mxCell>
        <mxCell id="tt7NXVBQ63s8AivNIr0f-27" value="Да&lt;span style=&quot;color: rgba(0, 0, 0, 0); font-family: monospace; font-size: 0px; text-align: start;&quot;&gt;%3CmxGraphModel%3E%3Croot%3E%3CmxCell%20id%3D%220%22%2F%3E%3CmxCell%20id%3D%221%22%20parent%3D%220%22%2F%3E%3CmxCell%20id%3D%222%22%20value%3D%22%22%20style%3D%22points%3D%5B%5B0.25%2C0%2C0%5D%2C%5B0.5%2C0%2C0%5D%2C%5B0.75%2C0%2C0%5D%2C%5B1%2C0.25%2C0%5D%2C%5B1%2C0.5%2C0%5D%2C%5B1%2C0.75%2C0%5D%2C%5B0.75%2C1%2C0%5D%2C%5B0.5%2C1%2C0%5D%2C%5B0.25%2C1%2C0%5D%2C%5B0%2C0.75%2C0%5D%2C%5B0%2C0.5%2C0%5D%2C%5B0%2C0.25%2C0%5D%5D%3Bshape%3Dmxgraph.bpmn.task%3BwhiteSpace%3Dwrap%3BrectStyle%3Drounded%3Bsize%3D10%3Bhtml%3D1%3Bcontainer%3D1%3Bexpand%3D0%3Bcollapsible%3D0%3BtaskMarker%3Duser%3B%22%20vertex%3D%221%22%20parent%3D%221%22%3E%3CmxGeometry%20x%3D%22330%22%20y%3D%22-20%22%20width%3D%22120%22%20height%3D%2280%22%20as%3D%22geometry%22%2F%3E%3C%2FmxCell%3E%3C%2Froot%3E%3C%2FmxGraphModel%3E&lt;/span&gt;" style="text;html=1;align=center;verticalAlign=middle;resizable=0;points=[];autosize=1;strokeColor=none;fillColor=none;" parent="z8Y7xAZGWk_IaaEwNHAA-1" vertex="1">
          <mxGeometry x="190" y="250" width="40" height="30" as="geometry" />
        </mxCell>
        <mxCell id="tt7NXVBQ63s8AivNIr0f-29" value="Да&lt;span style=&quot;color: rgba(0, 0, 0, 0); font-family: monospace; font-size: 0px; text-align: start;&quot;&gt;%3CmxGraphModel%3E%3Croot%3E%3CmxCell%20id%3D%220%22%2F%3E%3CmxCell%20id%3D%221%22%20parent%3D%220%22%2F%3E%3CmxCell%20id%3D%222%22%20value%3D%22%22%20style%3D%22points%3D%5B%5B0.25%2C0%2C0%5D%2C%5B0.5%2C0%2C0%5D%2C%5B0.75%2C0%2C0%5D%2C%5B1%2C0.25%2C0%5D%2C%5B1%2C0.5%2C0%5D%2C%5B1%2C0.75%2C0%5D%2C%5B0.75%2C1%2C0%5D%2C%5B0.5%2C1%2C0%5D%2C%5B0.25%2C1%2C0%5D%2C%5B0%2C0.75%2C0%5D%2C%5B0%2C0.5%2C0%5D%2C%5B0%2C0.25%2C0%5D%5D%3Bshape%3Dmxgraph.bpmn.task%3BwhiteSpace%3Dwrap%3BrectStyle%3Drounded%3Bsize%3D10%3Bhtml%3D1%3Bcontainer%3D1%3Bexpand%3D0%3Bcollapsible%3D0%3BtaskMarker%3Duser%3B%22%20vertex%3D%221%22%20parent%3D%221%22%3E%3CmxGeometry%20x%3D%22330%22%20y%3D%22-20%22%20width%3D%22120%22%20height%3D%2280%22%20as%3D%22geometry%22%2F%3E%3C%2FmxCell%3E%3C%2Froot%3E%3C%2FmxGraphModel%3E&lt;/span&gt;" style="text;html=1;align=center;verticalAlign=middle;resizable=0;points=[];autosize=1;strokeColor=none;fillColor=none;" parent="z8Y7xAZGWk_IaaEwNHAA-1" vertex="1">
          <mxGeometry x="430" y="250" width="40" height="30" as="geometry" />
        </mxCell>
        <mxCell id="tt7NXVBQ63s8AivNIr0f-32" value="&lt;font face=&quot;Calibri, sans-serif&quot;&gt;Рассчитать стоимость звонка&lt;/font&gt;" style="points=[[0.25,0,0],[0.5,0,0],[0.75,0,0],[1,0.25,0],[1,0.5,0],[1,0.75,0],[0.75,1,0],[0.5,1,0],[0.25,1,0],[0,0.75,0],[0,0.5,0],[0,0.25,0]];shape=mxgraph.bpmn.task;whiteSpace=wrap;rectStyle=rounded;size=10;html=1;container=1;expand=0;collapsible=0;taskMarker=user;align=center;fontSize=12;" parent="z8Y7xAZGWk_IaaEwNHAA-1" vertex="1">
          <mxGeometry x="867.5" y="262.5" width="145" height="105" as="geometry" />
        </mxCell>
        <mxCell id="tt7NXVBQ63s8AivNIr0f-37" style="edgeStyle=orthogonalEdgeStyle;rounded=0;orthogonalLoop=1;jettySize=auto;html=1;entryX=0;entryY=0.5;entryDx=0;entryDy=0;entryPerimeter=0;" parent="z8Y7xAZGWk_IaaEwNHAA-1" source="tt7NXVBQ63s8AivNIr0f-21" target="tt7NXVBQ63s8AivNIr0f-30" edge="1">
          <mxGeometry relative="1" as="geometry">
            <mxPoint x="660" y="315" as="targetPoint" />
          </mxGeometry>
        </mxCell>
        <mxCell id="tt7NXVBQ63s8AivNIr0f-38" value="Нет" style="text;html=1;align=center;verticalAlign=middle;resizable=0;points=[];autosize=1;strokeColor=none;fillColor=none;" parent="z8Y7xAZGWk_IaaEwNHAA-1" vertex="1">
          <mxGeometry x="460" y="290" width="40" height="30" as="geometry" />
        </mxCell>
        <mxCell id="tt7NXVBQ63s8AivNIr0f-42" value="Отправить квитанцию абоненту" style="points=[[0.25,0,0],[0.5,0,0],[0.75,0,0],[1,0.25,0],[1,0.5,0],[1,0.75,0],[0.75,1,0],[0.5,1,0],[0.25,1,0],[0,0.75,0],[0,0.5,0],[0,0.25,0]];shape=mxgraph.bpmn.task;whiteSpace=wrap;rectStyle=rounded;size=10;html=1;container=1;expand=0;collapsible=0;taskMarker=user;" parent="z8Y7xAZGWk_IaaEwNHAA-1" vertex="1">
          <mxGeometry x="1070" y="275" width="120" height="80" as="geometry" />
        </mxCell>
        <mxCell id="K9ykeOECbAF-_cHj3fSL-7" style="edgeStyle=orthogonalEdgeStyle;rounded=0;orthogonalLoop=1;jettySize=auto;html=1;entryX=0;entryY=0.5;entryDx=0;entryDy=0;entryPerimeter=0;" edge="1" parent="z8Y7xAZGWk_IaaEwNHAA-1" source="tt7NXVBQ63s8AivNIr0f-32" target="tt7NXVBQ63s8AivNIr0f-42">
          <mxGeometry relative="1" as="geometry" />
        </mxCell>
        <mxCell id="tt7NXVBQ63s8AivNIr0f-30" value="Добавить информацию о телефонном звонке" style="points=[[0.25,0,0],[0.5,0,0],[0.75,0,0],[1,0.25,0],[1,0.5,0],[1,0.75,0],[0.75,1,0],[0.5,1,0],[0.25,1,0],[0,0.75,0],[0,0.5,0],[0,0.25,0]];shape=mxgraph.bpmn.task;whiteSpace=wrap;rectStyle=rounded;size=10;html=1;container=1;expand=0;collapsible=0;taskMarker=user;" parent="z8Y7xAZGWk_IaaEwNHAA-1" vertex="1">
          <mxGeometry x="680" y="275" width="120" height="80" as="geometry" />
        </mxCell>
        <mxCell id="K9ykeOECbAF-_cHj3fSL-12" style="edgeStyle=orthogonalEdgeStyle;rounded=0;orthogonalLoop=1;jettySize=auto;html=1;entryX=0;entryY=0.5;entryDx=0;entryDy=0;entryPerimeter=0;" edge="1" parent="z8Y7xAZGWk_IaaEwNHAA-1" source="tt7NXVBQ63s8AivNIr0f-30" target="tt7NXVBQ63s8AivNIr0f-32">
          <mxGeometry relative="1" as="geometry" />
        </mxCell>
        <mxCell id="K9ykeOECbAF-_cHj3fSL-13" value="Абонент оплатил&amp;nbsp;&lt;div&gt;звонок?&lt;/div&gt;" style="points=[[0.25,0.25,0],[0.5,0,0],[0.75,0.25,0],[1,0.5,0],[0.75,0.75,0],[0.5,1,0],[0.25,0.75,0],[0,0.5,0]];shape=mxgraph.bpmn.gateway2;html=1;verticalLabelPosition=bottom;labelBackgroundColor=#ffffff;verticalAlign=top;align=center;perimeter=rhombusPerimeter;outlineConnect=0;outline=none;symbol=none;gwType=exclusive;" vertex="1" parent="z8Y7xAZGWk_IaaEwNHAA-1">
          <mxGeometry x="1260" y="290" width="50" height="50" as="geometry" />
        </mxCell>
        <mxCell id="K9ykeOECbAF-_cHj3fSL-14" value="Да&lt;span style=&quot;color: rgba(0, 0, 0, 0); font-family: monospace; font-size: 0px; text-align: start;&quot;&gt;%3CmxGraphModel%3E%3Croot%3E%3CmxCell%20id%3D%220%22%2F%3E%3CmxCell%20id%3D%221%22%20parent%3D%220%22%2F%3E%3CmxCell%20id%3D%222%22%20value%3D%22%22%20style%3D%22points%3D%5B%5B0.25%2C0%2C0%5D%2C%5B0.5%2C0%2C0%5D%2C%5B0.75%2C0%2C0%5D%2C%5B1%2C0.25%2C0%5D%2C%5B1%2C0.5%2C0%5D%2C%5B1%2C0.75%2C0%5D%2C%5B0.75%2C1%2C0%5D%2C%5B0.5%2C1%2C0%5D%2C%5B0.25%2C1%2C0%5D%2C%5B0%2C0.75%2C0%5D%2C%5B0%2C0.5%2C0%5D%2C%5B0%2C0.25%2C0%5D%5D%3Bshape%3Dmxgraph.bpmn.task%3BwhiteSpace%3Dwrap%3BrectStyle%3Drounded%3Bsize%3D10%3Bhtml%3D1%3Bcontainer%3D1%3Bexpand%3D0%3Bcollapsible%3D0%3BtaskMarker%3Duser%3B%22%20vertex%3D%221%22%20parent%3D%221%22%3E%3CmxGeometry%20x%3D%22330%22%20y%3D%22-20%22%20width%3D%22120%22%20height%3D%2280%22%20as%3D%22geometry%22%2F%3E%3C%2FmxCell%3E%3C%2Froot%3E%3C%2FmxGraphModel%3E&lt;/span&gt;" style="text;html=1;align=center;verticalAlign=middle;resizable=0;points=[];autosize=1;strokeColor=none;fillColor=none;" vertex="1" parent="z8Y7xAZGWk_IaaEwNHAA-1">
          <mxGeometry x="1310" y="290" width="40" height="30" as="geometry" />
        </mxCell>
        <mxCell id="K9ykeOECbAF-_cHj3fSL-15" value="Нет" style="text;html=1;align=center;verticalAlign=middle;resizable=0;points=[];autosize=1;strokeColor=none;fillColor=none;" vertex="1" parent="z8Y7xAZGWk_IaaEwNHAA-1">
          <mxGeometry x="1280" y="260" width="40" height="30" as="geometry" />
        </mxCell>
        <mxCell id="K9ykeOECbAF-_cHj3fSL-16" style="edgeStyle=orthogonalEdgeStyle;rounded=0;orthogonalLoop=1;jettySize=auto;html=1;entryX=0;entryY=0.5;entryDx=0;entryDy=0;entryPerimeter=0;" edge="1" parent="z8Y7xAZGWk_IaaEwNHAA-1" source="tt7NXVBQ63s8AivNIr0f-42" target="K9ykeOECbAF-_cHj3fSL-13">
          <mxGeometry relative="1" as="geometry" />
        </mxCell>
        <mxCell id="z8Y7xAZGWk_IaaEwNHAA-154" value="Завершить работу" style="points=[[0.145,0.145,0],[0.5,0,0],[0.855,0.145,0],[1,0.5,0],[0.855,0.855,0],[0.5,1,0],[0.145,0.855,0],[0,0.5,0]];shape=mxgraph.bpmn.event;html=1;verticalLabelPosition=bottom;labelBackgroundColor=#ffffff;verticalAlign=top;align=center;perimeter=ellipsePerimeter;outlineConnect=0;aspect=fixed;outline=end;symbol=terminate2;fillColor=#f5f5f5;fontColor=#333333;strokeColor=#666666;" parent="z8Y7xAZGWk_IaaEwNHAA-1" vertex="1">
          <mxGeometry x="1710" y="290" width="50" height="50" as="geometry" />
        </mxCell>
        <mxCell id="K9ykeOECbAF-_cHj3fSL-20" value="Оповестить абонента о неоплате" style="points=[[0.25,0,0],[0.5,0,0],[0.75,0,0],[1,0.25,0],[1,0.5,0],[1,0.75,0],[0.75,1,0],[0.5,1,0],[0.25,1,0],[0,0.75,0],[0,0.5,0],[0,0.25,0]];shape=mxgraph.bpmn.task;whiteSpace=wrap;rectStyle=rounded;size=10;html=1;container=1;expand=0;collapsible=0;taskMarker=user;" vertex="1" parent="z8Y7xAZGWk_IaaEwNHAA-1">
          <mxGeometry x="1310" y="170" width="120" height="80" as="geometry" />
        </mxCell>
        <mxCell id="K9ykeOECbAF-_cHj3fSL-21" style="edgeStyle=orthogonalEdgeStyle;rounded=0;orthogonalLoop=1;jettySize=auto;html=1;entryX=0;entryY=0.5;entryDx=0;entryDy=0;entryPerimeter=0;" edge="1" parent="z8Y7xAZGWk_IaaEwNHAA-1" source="K9ykeOECbAF-_cHj3fSL-13" target="K9ykeOECbAF-_cHj3fSL-20">
          <mxGeometry relative="1" as="geometry" />
        </mxCell>
        <mxCell id="K9ykeOECbAF-_cHj3fSL-24" value="" style="endArrow=classic;html=1;rounded=0;exitX=0.5;exitY=0;exitDx=0;exitDy=0;exitPerimeter=0;" edge="1" parent="z8Y7xAZGWk_IaaEwNHAA-1" source="K9ykeOECbAF-_cHj3fSL-20">
          <mxGeometry width="50" height="50" relative="1" as="geometry">
            <mxPoint x="1350" y="160" as="sourcePoint" />
            <mxPoint x="1230" y="315" as="targetPoint" />
            <Array as="points">
              <mxPoint x="1370" y="120" />
              <mxPoint x="1230" y="120" />
            </Array>
          </mxGeometry>
        </mxCell>
        <mxCell id="tt7NXVBQ63s8AivNIr0f-7" value="Приложение" style="swimlane;horizontal=0;whiteSpace=wrap;html=1;fillColor=#f5f5f5;fontColor=#333333;strokeColor=#666666;" parent="1" vertex="1">
          <mxGeometry x="90" y="270" width="1790" height="170" as="geometry" />
        </mxCell>
        <mxCell id="tt7NXVBQ63s8AivNIr0f-4" value="Сохранить пользователя" style="points=[[0.25,0,0],[0.5,0,0],[0.75,0,0],[1,0.25,0],[1,0.5,0],[1,0.75,0],[0.75,1,0],[0.5,1,0],[0.25,1,0],[0,0.75,0],[0,0.5,0],[0,0.25,0]];shape=mxgraph.bpmn.task;whiteSpace=wrap;rectStyle=rounded;size=10;html=1;container=1;expand=0;collapsible=0;taskMarker=service;" parent="tt7NXVBQ63s8AivNIr0f-7" vertex="1">
          <mxGeometry x="240" y="45" width="120" height="80" as="geometry" />
        </mxCell>
        <mxCell id="tt7NXVBQ63s8AivNIr0f-43" value="Сохранить стоимость услуг связи" style="points=[[0.25,0,0],[0.5,0,0],[0.75,0,0],[1,0.25,0],[1,0.5,0],[1,0.75,0],[0.75,1,0],[0.5,1,0],[0.25,1,0],[0,0.75,0],[0,0.5,0],[0,0.25,0]];shape=mxgraph.bpmn.task;whiteSpace=wrap;rectStyle=rounded;size=10;html=1;container=1;expand=0;collapsible=0;taskMarker=service;" parent="tt7NXVBQ63s8AivNIr0f-7" vertex="1">
          <mxGeometry x="490" y="45" width="120" height="80" as="geometry" />
        </mxCell>
        <mxCell id="tt7NXVBQ63s8AivNIr0f-49" value="&lt;font face=&quot;Helvetica&quot; style=&quot;font-size: 12px;&quot;&gt;Получить&amp;nbsp;&lt;span style=&quot;line-height: 107%;&quot;&gt;дату&lt;br&gt;разговора, город, с которым произошел разговор, номер абонента, длительность&lt;br&gt;разговора&lt;/span&gt;&lt;/font&gt;" style="points=[[0.25,0,0],[0.5,0,0],[0.75,0,0],[1,0.25,0],[1,0.5,0],[1,0.75,0],[0.75,1,0],[0.5,1,0],[0.25,1,0],[0,0.75,0],[0,0.5,0],[0,0.25,0]];shape=mxgraph.bpmn.task;whiteSpace=wrap;rectStyle=rounded;size=10;html=1;container=1;expand=0;collapsible=0;taskMarker=service;" parent="tt7NXVBQ63s8AivNIr0f-7" vertex="1">
          <mxGeometry x="880" y="40" width="140" height="85" as="geometry" />
        </mxCell>
        <mxCell id="K9ykeOECbAF-_cHj3fSL-3" style="edgeStyle=orthogonalEdgeStyle;rounded=0;orthogonalLoop=1;jettySize=auto;html=1;" edge="1" parent="tt7NXVBQ63s8AivNIr0f-7" source="tt7NXVBQ63s8AivNIr0f-50" target="K9ykeOECbAF-_cHj3fSL-2">
          <mxGeometry relative="1" as="geometry" />
        </mxCell>
        <mxCell id="tt7NXVBQ63s8AivNIr0f-50" value="Рассчитать стоимость звонка" style="points=[[0.25,0,0],[0.5,0,0],[0.75,0,0],[1,0.25,0],[1,0.5,0],[1,0.75,0],[0.75,1,0],[0.5,1,0],[0.25,1,0],[0,0.75,0],[0,0.5,0],[0,0.25,0]];shape=mxgraph.bpmn.task;whiteSpace=wrap;rectStyle=rounded;size=10;html=1;container=1;expand=0;collapsible=0;taskMarker=service;" parent="tt7NXVBQ63s8AivNIr0f-7" vertex="1">
          <mxGeometry x="1060" y="42.5" width="120" height="80" as="geometry" />
        </mxCell>
        <mxCell id="tt7NXVBQ63s8AivNIr0f-51" style="edgeStyle=orthogonalEdgeStyle;rounded=0;orthogonalLoop=1;jettySize=auto;html=1;entryX=0;entryY=0.5;entryDx=0;entryDy=0;entryPerimeter=0;" parent="tt7NXVBQ63s8AivNIr0f-7" source="tt7NXVBQ63s8AivNIr0f-49" target="tt7NXVBQ63s8AivNIr0f-50" edge="1">
          <mxGeometry relative="1" as="geometry" />
        </mxCell>
        <mxCell id="K9ykeOECbAF-_cHj3fSL-2" value="Сохранить стоимость звонка" style="points=[[0.25,0,0],[0.5,0,0],[0.75,0,0],[1,0.25,0],[1,0.5,0],[1,0.75,0],[0.75,1,0],[0.5,1,0],[0.25,1,0],[0,0.75,0],[0,0.5,0],[0,0.25,0]];shape=mxgraph.bpmn.task;whiteSpace=wrap;rectStyle=rounded;size=10;html=1;container=1;expand=0;collapsible=0;taskMarker=service;" vertex="1" parent="tt7NXVBQ63s8AivNIr0f-7">
          <mxGeometry x="1211" y="42.5" width="120" height="80" as="geometry" />
        </mxCell>
        <mxCell id="tt7NXVBQ63s8AivNIr0f-45" value="Сохранить информацию о телефонном звонке" style="points=[[0.25,0,0],[0.5,0,0],[0.75,0,0],[1,0.25,0],[1,0.5,0],[1,0.75,0],[0.75,1,0],[0.5,1,0],[0.25,1,0],[0,0.75,0],[0,0.5,0],[0,0.25,0]];shape=mxgraph.bpmn.task;whiteSpace=wrap;rectStyle=rounded;size=10;html=1;container=1;expand=0;collapsible=0;taskMarker=service;" parent="tt7NXVBQ63s8AivNIr0f-7" vertex="1">
          <mxGeometry x="680" y="45" width="120" height="80" as="geometry" />
        </mxCell>
        <mxCell id="K9ykeOECbAF-_cHj3fSL-9" style="edgeStyle=orthogonalEdgeStyle;rounded=0;orthogonalLoop=1;jettySize=auto;html=1;" edge="1" parent="tt7NXVBQ63s8AivNIr0f-7" source="K9ykeOECbAF-_cHj3fSL-4" target="K9ykeOECbAF-_cHj3fSL-5">
          <mxGeometry relative="1" as="geometry" />
        </mxCell>
        <mxCell id="K9ykeOECbAF-_cHj3fSL-5" value="Фиксировать разговор оплаченым" style="points=[[0.25,0,0],[0.5,0,0],[0.75,0,0],[1,0.25,0],[1,0.5,0],[1,0.75,0],[0.75,1,0],[0.5,1,0],[0.25,1,0],[0,0.75,0],[0,0.5,0],[0,0.25,0]];shape=mxgraph.bpmn.task;whiteSpace=wrap;rectStyle=rounded;size=10;html=1;container=1;expand=0;collapsible=0;taskMarker=user;" vertex="1" parent="tt7NXVBQ63s8AivNIr0f-7">
          <mxGeometry x="1540" y="-165" width="120" height="80" as="geometry" />
        </mxCell>
        <mxCell id="K9ykeOECbAF-_cHj3fSL-4" value="Принять извещение об оплате" style="points=[[0.25,0,0],[0.5,0,0],[0.75,0,0],[1,0.25,0],[1,0.5,0],[1,0.75,0],[0.75,1,0],[0.5,1,0],[0.25,1,0],[0,0.75,0],[0,0.5,0],[0,0.25,0]];shape=mxgraph.bpmn.task;whiteSpace=wrap;rectStyle=rounded;size=10;html=1;container=1;expand=0;collapsible=0;taskMarker=user;" vertex="1" parent="tt7NXVBQ63s8AivNIr0f-7">
          <mxGeometry x="1360" y="-165" width="120" height="80" as="geometry" />
        </mxCell>
        <mxCell id="K9ykeOECbAF-_cHj3fSL-11" style="edgeStyle=orthogonalEdgeStyle;rounded=0;orthogonalLoop=1;jettySize=auto;html=1;entryX=0.5;entryY=0;entryDx=0;entryDy=0;entryPerimeter=0;dashed=1;dashPattern=12 12;" edge="1" parent="tt7NXVBQ63s8AivNIr0f-7" source="K9ykeOECbAF-_cHj3fSL-5" target="K9ykeOECbAF-_cHj3fSL-10">
          <mxGeometry relative="1" as="geometry" />
        </mxCell>
        <mxCell id="K9ykeOECbAF-_cHj3fSL-10" value="Фиксация оплаты звонка" style="points=[[0.25,0,0],[0.5,0,0],[0.75,0,0],[1,0.25,0],[1,0.5,0],[1,0.75,0],[0.75,1,0],[0.5,1,0],[0.25,1,0],[0,0.75,0],[0,0.5,0],[0,0.25,0]];shape=mxgraph.bpmn.task;whiteSpace=wrap;rectStyle=rounded;size=10;html=1;container=1;expand=0;collapsible=0;taskMarker=service;" vertex="1" parent="tt7NXVBQ63s8AivNIr0f-7">
          <mxGeometry x="1540" y="42.5" width="120" height="80" as="geometry" />
        </mxCell>
        <mxCell id="tt7NXVBQ63s8AivNIr0f-31" style="edgeStyle=orthogonalEdgeStyle;rounded=0;orthogonalLoop=1;jettySize=auto;html=1;dashed=1;dashPattern=12 12;" parent="1" source="tt7NXVBQ63s8AivNIr0f-5" target="tt7NXVBQ63s8AivNIr0f-4" edge="1">
          <mxGeometry relative="1" as="geometry" />
        </mxCell>
        <mxCell id="tt7NXVBQ63s8AivNIr0f-41" value="Нет" style="text;html=1;align=center;verticalAlign=middle;resizable=0;points=[];autosize=1;strokeColor=none;fillColor=none;" parent="1" vertex="1">
          <mxGeometry x="340" y="150" width="40" height="30" as="geometry" />
        </mxCell>
        <mxCell id="tt7NXVBQ63s8AivNIr0f-44" style="edgeStyle=orthogonalEdgeStyle;rounded=0;orthogonalLoop=1;jettySize=auto;html=1;dashed=1;dashPattern=12 12;" parent="1" source="tt7NXVBQ63s8AivNIr0f-23" target="tt7NXVBQ63s8AivNIr0f-43" edge="1">
          <mxGeometry relative="1" as="geometry" />
        </mxCell>
        <mxCell id="tt7NXVBQ63s8AivNIr0f-48" style="edgeStyle=orthogonalEdgeStyle;rounded=0;orthogonalLoop=1;jettySize=auto;html=1;dashed=1;dashPattern=12 12;" parent="1" source="tt7NXVBQ63s8AivNIr0f-32" edge="1">
          <mxGeometry relative="1" as="geometry">
            <mxPoint x="1029.9999999999998" y="315" as="targetPoint" />
          </mxGeometry>
        </mxCell>
        <mxCell id="tt7NXVBQ63s8AivNIr0f-46" style="edgeStyle=orthogonalEdgeStyle;rounded=0;orthogonalLoop=1;jettySize=auto;html=1;dashed=1;dashPattern=12 12;" parent="1" source="tt7NXVBQ63s8AivNIr0f-30" target="tt7NXVBQ63s8AivNIr0f-45" edge="1">
          <mxGeometry relative="1" as="geometry" />
        </mxCell>
        <mxCell id="K9ykeOECbAF-_cHj3fSL-17" style="edgeStyle=orthogonalEdgeStyle;rounded=0;orthogonalLoop=1;jettySize=auto;html=1;entryX=0;entryY=0.5;entryDx=0;entryDy=0;entryPerimeter=0;" edge="1" parent="1" source="K9ykeOECbAF-_cHj3fSL-13" target="K9ykeOECbAF-_cHj3fSL-4">
          <mxGeometry relative="1" as="geometry" />
        </mxCell>
        <mxCell id="K9ykeOECbAF-_cHj3fSL-19" style="edgeStyle=orthogonalEdgeStyle;rounded=0;orthogonalLoop=1;jettySize=auto;html=1;entryX=0;entryY=0.5;entryDx=0;entryDy=0;entryPerimeter=0;" edge="1" parent="1" source="K9ykeOECbAF-_cHj3fSL-5" target="z8Y7xAZGWk_IaaEwNHAA-154">
          <mxGeometry relative="1" as="geometry" />
        </mxCell>
      </root>
    </mxGraphModel>
  </diagram>
</mxfile>
